<svg xmlns="http://www.w3.org/2000/svg" viewBox="0 0 1800 528"><path fill="#e8fafb" stroke="#e8fafb" d="m137.5 153 35.5.5-35.5.5zm178 0h30l1 1h8l3 3h6l3 3q1.83 1.67 6 1l9 7h2l13 10 7.5 7.5 7 9 1 4 3 3v2l4 4v4l3 3v4l4 5v3q-.75 3.25-5.5 2.5l-3-1-.5.5 2.5 2.5 6.5 3.5v4l3 6v8l-3 8v13l-4 6v5q-4 1-3 7l-4 4v3l-7 10-16.5 16.5q-4.25.75-6 4h-2l-9 7h-4l-5 4h-4l-3 3h-11v-1q3.9.4 5-2l11-2 2-2 4-1 6-4h2l9-7h2l3-2 11.5-11.5 11-16v-2l2-2 2-4v-3l3-5v-3l2-4v-4l2-4v-23l-1-3-7.5-8.5-1.5-.5 2-1-1-2q1.25-2.75 2.5-.5l2.5-.5v-4l-3-5-1-5-3-3v-2l-3-4-4-9-15.5-16.5h-2l-9-7-21-11h-9l-5-2h-29l-4 2-8 1-5 3-9 3q-9.75 4.25-16.5 11.5.6 4.6-2 6l-.5 8.5-1-4-2 1q-.17-3.83-3-5l-4.5 3.5-12 17q-.35 5.15-4 7v4l-3 4v4l-4 12-1 17 1 1v10l3 7 1 9 3 5v3l3 6 3 3 8 13 13.5 13.5 12 9 6 1 2 2h9l6-3 3-3 4-1 3-3 8-3 2.5-2.5.5-1.5 1.5-.5v-3l-4.5-4.5-11-7-12.5-11.5-14-18v-2l-3-3-1-4-3-3-5-9v-2l-2-2-1-7-2-4v-5l-2-4v-3l-2-3v-7l1-1 .5-4.5q-.03 5.53 2.5 8.5v5l1 1v8l3 3v8l4 5v4l3 3 1 5 3 3v2l3 3v2l4 4v2l19.5 21.5 8.5 5.5 1.5 2.5 4 3h3l2.5 2.5q1.67 1.83 1 6l-10.5 8.5-4 1-3 3h-2l-5.5 3.5.5 1.5 6-2 9-6h2l.5.5-2.5 2.5-8.5 4.5-.5 1.5h-3l-3.5 3.5 1.5 2.5h23l4.5 1.5-33.5.5q-2-.5-1.5-3.5l2-3-4.5-.5q-.75 1.75-4 1-1.25-2.25-6-1l-3-3-5-1-7-6-3-1-13.5-13.5-8.5-12.5-2.5-1.5v-4l-4-4q.75-5.25-3-6v-7l-4-5v-45l4-5v-7q4-1 3-7l4-4v-2l3-3 1-4 12.5-14.5 5-1 3 2 .5-7.5 1.5-1.5 5-4h3l4-4q5.25.75 6-3h4l4-4h8l3-3q4 1 5-1Zm381 0 23.5.5-23.5.5zm106 0 12.5.5-12.5.5zm118 0h12q1 2 5 1l5.5 4.5 4 5v171h-1q-1.83-2.17-1-7l1-1v-139l-1-1v-13l1-1v-6q-2.58-7.42-8.5-11.5-4.75 1.25-6-1h-11zm68 0 16.5.5-16.5.5zm74 0 16.5.5-16.5.5zm70 0 10.5.5-10.5.5zm67 0 15.5.5-15.5.5zm64 0 52.5.5-52.5.5zm127 0h16q.75 1.75 4 1l1.5 1.5-1.5-.5q-3.25.75-4-1h-16zm94 0h24q1.25 2.25 6 1l7.5 5.5-.5 5.5-.5-4.5-2.5-2.5-10-4h-24zm-1022 1h10l2.5 2.5-1.5.5-1-1h-7q-1.25 2.25-6 1l1-2zm106 0 4.5.5-.5 1.5-4.5-.5zm123 0 1.5.5-8 5-2.5 5.5-.5-3.5zm31 0q4.75-.75 5.5 2.5l-1.5.5-4-2zm74 0 2.5.5-8 5-1 2-.5 178.5-.5-178.5 3.5-4.5zm20 0q4-.5 4.5 2.5l4 6v4h-1v-3l-6.5-8.5q-2.38-.13-1-1Zm100 0 2.5.5-4.5 2.5-.5-.5z"/><path fill="none" stroke="#e8fafb" stroke-linecap="round" stroke-linejoin="round" stroke-width="1.02" d="m1007.5 154 7.5 6.5-.5 129.5-.5-125.5-1-1-.5-4.5-5.5-4.5z" data-centerline="1"/><path fill="#e8fafb" stroke="#e8fafb" d="m1080.5 154 2.5 1.5-1.5-.5q-2.38-.13-1-1Zm48 0 2.5.5-5 3-1.5 2.5-.5-1.5z"/><path fill="none" stroke="#e8fafb" stroke-linecap="round" stroke-linejoin="round" stroke-width="1.02" d="M1145.5 154h2l7.5 6.5-.5 2.5-5-6-4-2z" data-centerline="1"/><path fill="#e8fafb" stroke="#e8fafb" d="m1216.5 154 6.5 4.5-1.5-.5-5-3zm102 0h2l6.5 5.5-1.5-.5-7-4zm69 0 .5.5-2.5 2.5-3 2-.5-.5 3.5-3.5zm92 0 2.5.5-2.5.5-6.5 4.5-.5 6.5-.5-6.5zm111 0h10l2.5 2.5-1.5-.5-3 1-1-1h-8l-3 1v-1zm-331 2-.5 1.5-1.5 3.5-.5-2.5zm-1073 1 3.5 2.5-.5.5-2-2q-2.38-.12-1-1Zm266 0 5.5.5q-4.69-.19-6 3l-2 4q1.75.75 1 4l-1 1v10q2 1 0 2v51q2 1 1 5l-1 1v9q2 1 0 2v6l1 3-1 1v71l1 3q-1.75.75-1 4l.5 1.5-2.5-4.5v-171zm24 0q5.25-1.25 6.5 1.5l1 3v43h-1v-43l-2.5-3.5q-5 1-4-1Zm81 0 5.5.5-5.5.5-1 1zm25 0q6.5-1 7.5 3.5l1 2v146h-1v-10l-1-3 1-1v-132l-3.5-4.5q-5 1-4-1Zm147 0 2.5 1.5 3 5v11h-1v-9l-5-8z"/><path fill="none" stroke="#e8fafb" stroke-linecap="round" stroke-linejoin="round" stroke-width="1.02" d="m1055.5 157 .5.5-2 2q1.25 4.75-1 6l-.5 121.5-.5-127.5z" data-centerline="1"/><path fill="#e8fafb" stroke="#e8fafb" d="m1192.5 157-.5 1.5-.5 1.5-1.5-.5z"/><path fill="none" stroke="#e8fafb" stroke-linecap="round" stroke-linejoin="round" stroke-width="1.02" d="m1413.5 157 3.5 3.5v175h-1v-12l-1-2 1-1v-155q-2-1-1-5z" data-centerline="1"/><path fill="#e8fafb" stroke="#e8fafb" d="m1580.5 157 3.5.5-4 2-2 3-.5 175.5-1.5-4.5v-170zm25 0q4.5-1 5.5 1.5l1 2v150l1 1-2-1v-150l-2.5-2.5q-4 .75-3-1Zm-1414 3 3.5 2.5 1.5 2.5 2.5 1.5 4 5v2h-1v-2l-11-11zm1032 0 .5 174.5h-1zm-312 1 .5 1.5-1.5 2.5-1.5.5q2 1 0 2l-.5 2.5-.5-4.5zm212 0 .5 1.5-3 4v171l.5 1.5-1.5-1.5v-172zm66 0 1.5 4.5v4l-1 1v13l1 1v30q-2 1-1 5l1 2-1.5 2.5zm138 0q2.88 1.63 3.5 5.5h-1l-3-5z"/><path fill="none" stroke="#e8fafb" stroke-linecap="round" stroke-linejoin="round" stroke-width="1.02" d="M1256.5 163q2.25 1.75 1.5 6.5l-1 1v150l1 2-1 1v7l1 3-1.5 2.5z" data-centerline="1"/><path fill="#e8fafb" stroke="#e8fafb" d="M1155.5 164q4.75 1.25 3.5 8.5h-1v-3l-3-4zm316 3 .5 2.5-2.5 5.5-.5-4.5zm51 0 2.5 3.5v7h-1l-.5-7.5-1.5-.5zm-697 1 2.5 3.5h-1zm506 0 3.5 2.5-.5 4.5-.5-2.5-3-4zm-1221 5 .5 164.5h-1zm1049 1 2.5 3.5-.5.5-2.5-2.5zm-956 1 3.5 2.5v4l3 3v2h-1l-3-5v-3l-3-3zm478 0 .5 2.5-2 2-1.5 17.5-.5-15.5 3-4zm53 1 .5 2.5h-1zm601 0q3 .5 2.5 4.5h-1l-2-3zm-431 1 .5 5.5-3.5 4.5-.5-2.5q3.95-1.55 3.5-7.5Zm-75 1q3.75 1.25 2.5 7.5h-1v-5l-2-2zm639 1 .5 9.5h-1zm-733 1 2.5 2.5v7l1 1v11q4.93 3.07 3 13h-1v-7l-3-6v-10l-1-1v-6l-2-3zm427 2 3.5 3.5v3h-1v-3l-3-3zm176 0q-.45 5.95 3.5 7.5v6h-1l-1-7-2-2zm187 4 .5 3.5 3 4v15h-1v-12q-2-1-1-5l-2-2zm-693 1 2.5 2.5 1 7 3 3v4h-1v-4l-3-3v-4l-3-5zm460 1-.5 1.5-.5 118.5-.5-118.5zm3 0h7l1.5 1.5-1.5-.5h-7zm-395 2 .5 1.5-3 4v5q-3.25 1.25-3.5 5.5l-.5-2.5 3-3v-6zm266 0 1.5 2.5-2-1zm-956 2 3.5 5.5v30l-3 4-.5 2.5-.5-4.5 2-3v-6l1-1v-14l-1-1v-6l-2-4zm1094 0 2.5 3.5-2-1zm161 1q2 .5 1.5 3.5l-1 1-.5 6.5zm-1194 1 .5 4.5h-1zm897 0q2.25.75 1.5 4.5h-1zm-990 2 .5 3.5h-1zm160 3q4-1 5 1h9l1 1h7l1 1h10l8 4 14 4 3.5 3.5-3.5.5q-3.22-4.28-11-4l-3-3h-8l-7-4h-45l-7 4h-8q-1.25 4.25-8 3l-5 4h-5l-4 4h-4q-.5 2.5-4 2l-2.5-2.5v-11h1l1 8 1.5 1.5h4l12-7h4l5-3 12-4h7l1-1q4.75 1.25 6-1h11zm969 0q-.03 5.53 2.5 8.5l-.5.5-2.5-2.5zm-137 1q3.25.75 2.5 5.5h-1zm-494 1-.5 1.5-.5 2.5-.5-2.5zm666 0 2.5 2.5q-1 4 1 5v19h-1v-15l-1-1v-6l-2-3zm-503 4 3.5 4.5v5l3 4h-1l-.5-1.5-1.5-.5q-1.67-1.83-1-6l-3-4zm334 3q4.5 1 3.5 7.5h-1v-3l-3-4zm137 1 .5 13.5q2 1 1 5h-1q.75-3.25-1-4zm-636 1 .5 10.5-3 4q1.75.75 1 4l-1 1-.5 5.5-.5-10.5 3-5zm790 0 .5 2.5-2.5 3.5-.5-2.5zm65 1 2.5 2.5 1 18h-1l-1-16-2-3zm-638 1-.5 1.5-.5 3.5-.5-3.5z"/><path fill="#e8fafb" stroke="#e8fafb" d="M385.5 215q7.96-1.46 10.5 2.5l-3.5.5-2-1-2.5 2.5v5l-2 5v7l-2 3v6l-3 7v6l-4 6v3l-2 2-1 4-12 22-17.5 17.5-10 9-5 1v-1l4-3h2l19.5-19.5 10-14 1-4 3-3v-3l4-4q-1-6 3-7v-6l4-5v-10l3-3v-22zm18 1 3.5 1.5.5 1.5q3.88.63 5.5 3.5l-.5 1.5-10.5-6.5zm1058 1 .5 14.5h-1zm-284 1 2.5 2.5-.5.5-2.5-2.5zm-694 2 .5 9.5h-1zm406 0 .5 1.5-2.5 1.5-.5-.5zm-486 1 4.5 2.5-.5 1.5-4.5-2.5zm-225 1 .5 1.5-2 2-1.5 4.5-.5-3.5zm564 1 2.5 2.5q-1 4 1 5v12h-1v-9q-2.25-1.25-1-6l-2-2zm104 0 3.5 4.5v5l2 2 2 6-2-1v-2l-3-5-.5-5.5-2.5-1.5zm650 1 1.5.5 1 12h-1l-.5-7.5-1.5-.5zm-316 1 3.5 3.5v3h-1v-2l-3-3zm-294 1 .5 3.5-3.5 5.5-.5-2.5q3.63-1.37 3.5-6.5Zm303 0q2.25.75 1.5 4.5l-1 1v6q2 1 1 5-2 4.5-4 1l.5-1.5 2 1 .5-2.5-1-1zm122 3 .5 6.5 1 1v10l1 1q-2 1 0 2v8l-1 1q2 1 0 2 1.25 4.75-1 6l1 1-1 1 1 1-1 3-1.5 21.5-.5-13.5 1-1v-15l1-1v-7q1.75-.75 1-4l-1-1v-7l-1-1zm184 1 .5 6.5q-2.42 1.08-2.5 4.5l-.5-2.5 2-2zm-785 1 .5 11.5 2 4q-.67 4.17 1 6h-1l-2-3v-6l-1-1zm637 2 1.5 3.5v33l-1.5.5-.5-2.5 1-1v-22l-1-3q2-1 0-2l1-2q-2.13-1.13-.5-4.5Zm113 0 .5 2.5-2 2-.5 5.5-.5-7.5zm73 0 2.5 3.5v8h-1v-4l-1-1v-4q-1.75-.75-.5-2.5Zm-1324 5 .5 2.5-3 3q1 4.5-1.5 5.5l-2 1-.5-.5 3-3v-4zm1290 0 1.5.5-.5 3.5zm-617 1 .5 1.5-2.5 1.5-.5-.5zm-177 1 .5 5.5-2.5 2.5-.5-.5zm174 3 .5 4.5h-1zm613 0 .5 14.5-2 1zm-824 1 .5 6.5-1 1-.5 9.5-.5-12.5zm186 0q3 .5 2.5 4.5h-1zm-108 1 2.5 3.5v10h-1v-6l-2-5zm789 2 .5 3.5h-1zm-1052 1 .5 10.5h-1zm219 1 .5 12.5q-2.25 1.25-1 6l-2.5 2.5-.5-1.5 3-8zm176 0 .5 1.5q-2.75 1.25-2.5 5.5l-.5-4.5zm277 1-.5 1.5-.5 5.5-.5-5.5zm346 0 2.5 10.5-.5.5-2.5-2.5zm-1299 1 .5 1.5-6.5 6.5-.5-.5zm655 1 3.5 4.5v5q3.75.75 3 6h-1l-3-6v-4l-3-4zm600 0 .5 2.5-2.5 2.5-.5-.5q2.42-1.08 2.5-4.5Zm79 2 2.5 3.5q-.75 3.25 1 4v13h-1v-10l-3-9zm-661 4 .5.5-2 2-1.5 6.5-.5-5.5zm283 0q2 .5 1.5 3.5h-1zm297 0 .5 1.5-1 1-.5 14.5-.5-15.5zm-741 1 .5 7.5 2 4-.5.5-2.5-2.5zm-521 1 .5.5-3.5 3.5-.5-.5zm717 0 1.5.5-.5 2.5-1.5-.5zm244 0 .5 45.5h-1zm-330 1 1.5.5-.5 3.5-2.5-.5q-.5-3 1.5-3.5Zm665 1 .5 2.5h-1zm15 0 .5 6.5h-1zm-1021 1 .5 47.5h-1zm183 0 .5 2.5-1 1v5l-1.5 3.5-.5-8.5zm-480 1 1.5.5q-1.5 5-9.5 3.5v-1q6.75 1.25 8-3Zm723 0 .5 1.5-2 1zm251 0 2.5 3.5-.5.5-2.5-2.5zm-411 1 3.5 7.5v15h-1v-14l-2-2zm77 2 2.5 3.5-.5.5-2.5-2.5zm-651 1 1.5.5-2.5 2.5h-11v-1q8.33 1.33 12-2Zm696 0 .5.5-2 2-.5 2.5-.5-2.5zm-48 1 1.5 1.5v67l-4.5 5.5-1.5-.5 2.5-3.5 1.5-.5 1-4-1-3 1-3-1-1v-6q1.75-.75 1-4l-1-1v-32l1-1v-9q-2.35-1.35-.5-5.5Zm-677 1 1.5.5-3 2 1 2v63h-1v-35l-1-3 1-1v-6l-1-1v-19zm1017 0 .5 3.5 3 4-.5.5-2.5-2.5q-1.85-2.02-.5-5.5Zm-1014 1 9.5.5-9.5.5zm550 0 4.5 1.5-3.5.5zm165 0 3 4 1.5.5-.5 2.5-1.5-.5v-2l-3-3zm624 0 2 1h13l1.5-.5-1.5 1.5h-14zm-659 2q-.04 6.54 3.5 9.5h-1l-3-4zm77 0 .5 3.5q-4.5 1.5-3 9l-3.5 3.5-.5-1.5 3-3v-5zm634 4 2.5 2.5v8h-1l-1-9zm-195 1 .5 2.5h-1zm-178 2 .5 2.5 3 4v4h-1q1-6-3-7zm284 0 .5 3.5h-1zm-106 2 .5 13.5h-1zm-683 4 .5 2.5-2 4-.5 11.5-.5-14.5zm318 2 .5 10.5h-1zm-227 1q3.33 1.67 2.5 7.5h-1v-4q-3-1-1.5-3.5Zm697 0 .5 8.5h-1zm-551 1 .5 5.5q-3.62 1.38-3.5 6.5l-.5-3.5 3-4zm-64 1q3 1.5 1.5 7.5l3 4-.5.5-3.5-3.5q.58-6.75-.5-8.5Zm251 0 .5 6.5h-1zm-35 2-.5 1.5-.5 1.5-.5-1.5zm-36 1 3.5 3.5v3h-1v-2l-3-4zm294 1-.5 1.5-1.5 5.5-.5-3.5zm-261 2 .5 2.5h-1zm495 0 2.5 4.5-1.5.5q-2.4-1.77-1-5Zm-459 2 1.5.5q-2.42 1.08-2.5 4.5l-.5-2.5zm260 0 .5.5-2 2-.5 1.5-.5-2.5zm105 0-.5 1.5-.5 1.5-.5-1.5zm-468 1 1.5.5-.5 1.5zm66 1 .5 1.5-2.5 1.5-.5-.5zm-291 2 .5 7.5h-1zm227 0 .5 3.5h-1zm464 0 .5 9.5h-1zm99 0 .5 15.5h-1zm-651 2 .5.5-2.5 2.5-.5-.5zm-236 1 .5 2.5-1.5.5.5-1.5zm36 0h25l1.5 1.5-1.5-.5h-24l-2.5 2.5q.5 3-1.5 3.5l-.5-1.5 1-3zm387 0 .5 2.5-3 3q1 4.5-1.5 5.5l.5-1.5v-4q3.25-1.25 3.5-5.5Zm224 0 .5.5-4.5 4.5-4-1-3 1-.5-1.5 7.5-.5zm35 0 .5 6.5-2.5 2.5-.5-.5 2-3zm142 0 11.5.5-11.5.5-1 1zm14 0h13l1.5 1.5-1.5-.5h-13zm-459 2 1.5.5-4.5 3.5h-4l-2.5-2.5.5-.5q1 3 6 2zm-316 1q2.06 1.44 1.5 5.5l-1.5.5-1.5-4.5zm170 1 .5 5.5-3.5 3.5-.5-.5q3.25-2.75 3.5-8.5Zm589 0 .5 3.5h-1zm-991 1 29.5.5-29.5.5zm105 0 29.5.5-29.5.5zm1023 0 29.5.5-29.5.5zm-1095 1 2.5 1.5-.5 1.5-2.5-2.5zm106 0 1.5 1.5v6l3 6v5l-2.5 3.5.5-1.5v-8l-2-5q.5-6-.5-7.5Zm28 0 .5 2.5h-1zm100 0 2.5 3.5v10h-1v-6l-1-1v-4q-1.75-.75-.5-2.5Zm86 0 .5 5.5 1.5 2.5 1.5.5-.5 1.5q-5.5-2-3-10Zm311 1 .5 3.5h-1zm-167 1 3.5 4.5-.5.5-3.5-3.5zm-296 1 .5 14.5-1.5 2.5-.5-4.5 1-1zm490 0 1 4 2.5 1.5-.5 1.5-3.5-3.5zm300 0 .5 6.5h-1zm31 0 .5 7.5 2 4h-1l-2-3zm-986 2 .5 20.5h-1zm1128 0 .5 22.5-2.5 3.5-1.5-.5 3-4zm-998 1 .5 10.5h-1zm419 2 .5 2.5-7.5 7.5-.5-.5zm79 0 .5 13.5h-1zm-163 1 3.5 4.5-.5.5-3.5-3.5zm346 0 .5 1.5-2.5 2.5-.5-.5zm-449 2 .5 2.5q-4.25 1.25-3 8l-3.5 3.5-.5-1.5 2-1q1.67-1.83 1-6zm661 1 .5 6.5h-1zm-824 1 .5 4.5h-1zm122 0 .5 4.5 1 1-2-1zm487 1 .5 3.5-3.5 3.5-.5-.5q3.63-1.37 3.5-6.5Zm144 0 .5 10.5-7.5 6.5v-1l3.5-2.5 1.5-2.5 1.5-.5zm-35 1 .5 7.5h-1zm72 1 .5 9.5 3 3-.5.5-3.5-3.5zm-327 3 .5 3.5h-1zm-123 1 .5.5-3.5 3.5-.5-.5zm-339 3 5.5 7.5-1.5.5-4.5-6.5zm220 1 .5 2.5-4.5 4.5-.5-.5zm60 0 2.5 1.5-.5 1.5-2.5-2.5zm438 0 3.5 3.5-.5.5-3.5-3.5zm-685 1 .5.5-5.5 5.5-.5-.5zm395 0 .5 3.5q-.5 3-4.5 2.5v-1l3.5-2.5zm393 1 .5.5-2 2-1.5 2.5-1.5-.5zm-667 1 .5.5-3.5 3.5-.5-.5zm174 0 1.5.5-5.5 3.5v-1zm203 0 3.5 3.5-.5.5-2.5-1.5zm-732 1 .5 1.5-2.5 1.5-.5-.5zm31 0 1.5 2.5-2-1zm356 0 3.5 2.5-2.5.5q-2.37-.87-1-3Zm-801 1 2.5 1.5-1.5.5zm550 0 2.5 1.5-1.5.5zm194 0 2.5 1.5-1.5.5zm268 0 2.5 1.5-1.5.5z"/><path fill="#272727" stroke="#272727" d="M134.5 153q3.5-.5 4 2h14l1-1h12l1 1h10q3 4.5 10.5 4.5l1.5 2.5 4.5 2.5 1.5 2.5 3.5 2.5v2l4.5 6.5 1.5.5 2 8 3 4 1 31-1 1v13l-3 4v3l-2.5 4.5-1.5.5v3l-4.5 5.5-8 6-4 1-3 3q-4-1-5 1h-9l-6 2h-18l-2.5 2.5v51l1 1v14l-3.5 4.5h-26l-1.5-1.5q.75-3.25-1-4l1-1v-135l1-1v-7l-1-1v-8l-1-1-1-16 2.5-2.5 8.5-.5q-1-5.5 2.5-6.5l4-3h6zm10.5 31-3 4v46l-1 2 5 3h3q1-2 2 0h17q0-2 4-1l7-9q2-3 1-8l1-1v-19q-2-2-1-6l-3-3v-3l-7-5zm422.5-30-1 2-1.5-.5zm6 0q4.5-1 5.5 1.5l-1.5-.5q-5 1-4-1Zm123 1h22l5 3q5.25-1.25 6.5 1.5v5l3 6 1 16 3 10v9l3 8 1 10q-2 1 0 2v4l2 5v5l2 4q-1.75.75-1 4l1 1 1 10 2 5v9l2 3 1 13q2.25 1.25 1 6l2 2 1 9-1 2 1 1 1 12 3 7v8l-4 3-1.5 2.5q-3.25-.75-4 1h-15l-4.5-3.5v-3l-3-4v-4q2-1 0-2l-1-3v-12q-2.4-1.1-2-5l-2.5-2.5q-3.25-.75-4 1l-2-1-1 1h-6q-.75-1.75-4-1-1 2-5 1-.75-1.75-4-1l-4.5 3.5q1 4-1 5v9l-1 1-1 8-2 4q1.75.75 1 4l-8.5 4.5h-12l-8.5-5.5v-13l1-1v-5l2-4q-1.25-4.75 1-6v-10l3-7 1-15 2-3 1-19 3-4-1-3q3.33-3.67 2-12l2-3 2-25 2-2q-1-4 1-5v-9l2-4 2-15q-2-1-1-5l3-3q-.75-4.75 2.5-5.5h3zm10.5 60q-2 2 0 3l-2 4v7l-1 1v11h-1l-2 5v11l-3 7q-2 7 2 10 3 1 5-1h6l1 1 6-1 1-1-3-10v-3q-2-1 0-2l-1-11-3-5 1-3-2-17-2-4zm96.5-60q13.29-2.29 16.5 5.5l4 7v3l3 3v6l4 7v3l3 5v3q3.74 3.76 4 11l3 4q-1.25 5.25 1.5 6.5l1.5.5q1.83 2.17 1 7l3 5 1 6 3 4v3l3 4v5l4 7 1 5 3 6v3l4.5 6.5 2.5-1.5v-3l3-5 1-6 4-8v-3l3-4v-5l3-3v-6l4-5 1-7 3-3v-5l2-2 2-8 3-4v-5l3-4q-1.5-6 1.5-7.5l2.5-.5v-6q3.46-3.54 4-10l3-4q-1.5-6 1.5-7.5h3l4-3h7l1 1 6 1 6.5 4.5v3l2 4-1 1v151l1 3-1 1v9l2 3-4.5 5.5h-23l-5.5-4.5 1-3v-28l1-3-1-1v-13q2-1 0-2v-10q2.25-1.25 1-6l-1-1-.5-15.5-2.5.5-1 7-3 4-1 6-3 5-.5 6.5-2.5 1.5-1 7-2 2-2 9-2 2-1 6-3 4v4l-3 5v4l-4 6q.75 3.75-1.5 4.5l-3.5 1.5-.5 1.5q-4.17-.67-6 1l-1-1h-9l-2.5-1.5-.5-2.5-3.5-1.5q-1.67-1.83-1-6l-4-7v-5l-3-3q1-4.5-1.5-5.5l-1.5.5.5 1.5-2.5-3.5 1-1v-8l-3-2v-7l-4-6v-5q-4.28-3.22-4-11l-3-3-1-7-3.5-5.5-2.5.5 1 3v13l-1 3 1 1v51l-1 2q1.75.75 1 4l-1 3q1.75.75 1 4l-2.5 4.5h-10l-2 1-1-1h-12l-2.5-2.5v-174l2.5-5.5q4.25-.75 6-4 3.25.75 4-1Zm183 0q1 2 2 0l5 1 1-1h10l2.5 1.5.5 1.5 3.5 2.5v118l1 1v7l1 1 1 9 3 3 1.5 4.5 1.5.5 3.5 4.5 4.5 1.5 1.5 2.5h7l3-3 4-1 6.5-6.5-1-2 4-5q-.75-3.25 1-4-2-1 0-2l2-6v-122l4.5-4.5 4-2h13l4 3h2l2-1q2.75 1.25.5 2.5v100l-1 3 1 1v6l-1 1v6q2 1 1 5l-1 3q2 1 1 5l-3 6-1 8-4 7q.67 4.17-1 6 2.25 1.25-.5 2.5v-2l-1.5.5-.5 2.5-1.5.5-7.5 10.5-3.5 1.5-2 3 .5 1.5-2 1v-2l-3 2h-3l-6 4h-14l-3 1-1-1h-9l-3.5-1.5-1.5-2.5-4.5-.5-1.5-2.5q-4-1-5 1-2.31-1.19-2-5l-2 1q-2.75-1.25-.5-2.5l-11-17v-3l-3-5v-8l-3-3v-10l-1-1v-123l5-3zm150 0q2.5 2 8 1l7.5 5.5 2 3v3l3 4v3l4 6v4q4 3 4 10l3 4 1 5 2 2 2 7 2 2 1 6 3 3v4l3 4v3l1.5 3.5 2.5 1.5v5l4 5 .5 3.5 2.5-.5v-92l4.5-4.5 2-1 2 1 1-1h11l8.5 5.5v172l-1 3-5.5 5.5-3 1h-12l-3-1-3 1-1.5-1.5-.5-4.5-1.5-.5-2.5-7.5q-3 .5-3.5-1.5 1.83-2.17 1-7l-4-5-.5-5.5-2.5-1.5q1-4.5-1.5-5.5l-1 1-2.5-2.5q2.5-.5 2-4l-1-3-3-3v-4l-4-8-1-6-3-3-.5-5.5-1.5-.5-1.5-6.5-2-1-1.5.5-.5-1.5-1.5-.5.5-1.5 1.5-.5q.94-5.44-1.5-7.5l-2.5 1.5v92l-3.5 3.5h-23l-1.5-1.5-2-4v-40l1-1v-129q2-1 1-5l4.5-4.5q1.83-1.67 6-1zm126 0h51q.75 1.75 4 1l9.5 7.5 3 5v2l3 3 1 7 3 4 1 8 2 2 1 10 1 1v7l1 1q-1.25 4.75 1 6v16l1 1v38q-2.25 1.25-1 6l1 3-1 1-1 12 .5 1.5-2.5.5-1 10-2 2-1 8-4 7-.5 3.5-1.5.5-1 3-5.5 6.5-4 3h-58l-3-4-1.5-.5 2-6-1-1v-7l1-3-1-1v-149q1.75-.75 1-4-1.75-.75-1-4l2-2q-1-4.5 1.5-5.5Zm32.5 31-3 1-2 2q1 3-1 4v67l1 1v16l-1 1v7l1 1v8l-1 1q-1 3 1 4 1 3-1 5 2 0 1 5l5 4q6 1 9-1l4-4q-1-7 3-8-1-4 1-4v-8l2-5v-5l1-1v-44l-1-1v-8l-1-1v-7l-1-1-1-12-3-4v-6l-2-2-1-2-4-3zm96.5-31h14l7.5 5.5v164q2 1 1 5-2 1-1 5l1 2-4.5 5.5h-23l-2 1-2.5-2.5 1-1q2-2.5 1-8l-1-1v-9q2-1 1-5-2.25-1.25-1-6l1-1v-21l-1-1v-57l1-1v-28l-1-3 1-1v-20q-1.75-.75-1-4l1-1v-10l-1-3zm97 0h18l5 3 5 1 3.5 3.5v9l3 7 1 14q2.25 1.25 1 6l2 4 1 15 3 7v12l3 8 1 17 2 4v6l2 4v9l2 3q-1 4 1 5v11q1.75.75 1 4l2 2v11l1 1v5l1 1 1 6-1 3-2.5 2.5-1.5.5-.5 1.5-2 1h-19l-4.5-6.5v-11q-2.25-1.25-1-6-3-2-2-8l-3.5-6.5-11-1q-.75 2.75-5 2l-1-1h-11l-1.5 1.5v4l-2 3 1 3-2 3-2 16-5.5 6.5-2 1h-10l-3-1-4 2-3.5-2.5 1.5-.5 1.5.5-4.5-5.5-1.5-.5-1-2 3-4-3-4v-2l2-1 .5 1.5 1.5-2.5v-6l2-5q-2-1 0-2l2-6v-11l1-2-1-2 3-4 1-9-1-2 4-12 1-16 1-1q-2-1 0-2-.4-3.9 2-5v-3q-2-1 0-2v-6l3-8v-8l2-6-1-2 2-3q-1-4 1-5v-11q2-1 1-5l2-2 1-13 2.5-2.5zm8.5 62q-3 3-2 10l-3 6-1 14-3 9v10l-1 1q-1 6 3 7h15l2-2-1-6q-2-1 0-2v-5l-3-9v-4l-1-1q-1-5 1-5l-2-4 1-3-2-3-1-7-2 1-1-1 2-1v-4zM460.5 158l3 1h15l2.5 2.5 1 2v132l-1 2 1 1v13l1.5 1.5h38l1.5 1.5 2 3v3q-2 1 0 2v10l-1 1q2 1 1 5l-3.5 3.5h-67l-1.5-1.5v-10l-1-2 1-1v-8l-1-3 1-1v-153l3.5-3.5q3.25.75 4-1Zm106 0h11l1 1h7l1.5 1.5.5 2.5 1.5.5q-2.6 1.4-2 6l1 3-1 1v24l1 3-1 1v29l1 3-1 1v6q1.75.75 1 4-1.75.75-1 4l1 1v9l-1 1v42l1 3q-2 1 0 2-1 5.5 2.5 6.5h31q1 2 5 1 1.25-2.25 2.5.5l1 16-1 1v7l2 3q-1.25 2.75-2.5.5-3.25.75-4-1l-1 1h-64l-2.5-2.5v-14q1.75-.75 1-4-1.75-.75-1-4 1.75-.75 1-4-2-1-1-5 2.25-1.25 1-6l-1-3q1.75-.75 1-4l-1-1v-133l2.5-2.5h6zm1021 0 1 1h12q.75-1.75 4-1l5.5 4.5v149l1.5 1.5h38l2.5 2.5 1 2v18l-3.5 6.5h-67l-1.5-1.5-1-12q1.75-.75 1-4l-1-1v-38q1.75-.75 1-4-1.75-.75-1-4 1.75-.75 1-4l-1-2 1-1v-105q-2-1 0-2l2.5-4.5q3.25.75 4-1Z"/><path fill="#272727" stroke="#272727" d="m707.5 227 2.5 1.5-.5 1.5-1-2q-2.37-.13-1-1Zm641 43 .5 1.5-2.5 4.5-.5-1.5 1-1-.5-1.5 1.5-.5zm104 7-.5 1.5-.5 1.5-.5-1.5zm-433 24 2.5 2.5-.5.5-2.5-2.5zm-535 10 2.5.5-2.5.5zm171 18 .5 5.5-2-1zm-511 10 .5.5-3.5 3.5-.5-.5z"/><path fill="#09d0c8" stroke="#09d0c8" d="M316.5 156h29l5 2h9l5 3h2l5 4 4 1 18.5 12.5 13 14 3 5v2q3.37 2.63 4 8l3 3 1 5 2 2 1 7-2.5.5q-1.5-2.5-3 1l-2.5-2.5-2.5-3.5-3.5-1.5-.5-1.5-3-1q-4.75 2.25-.5 4.5l.5 2.5 4 2 1-2 6.5 4.5.5 1.5 2.5 1.5 6 7 1 3v23l-2 4v4l-2 4v3l-3 5v3l-4 6v2l-4 5v2l-7 9-11.5 11.5-3 2h-2l-9 7h-2l-12 7-11 2-6 3h-9l-5-2h-23l-1.5-1.5 3.5-4.5 3.5-.5 1.5-2.5q6.25-1.25 9.5-5.5l2.5-3.5q4.17.67 6-1l27.5-26.5 5-8v-2l2-2 6-14 2-2 1-5 3-4v-6l3-7v-6l2-3v-7l2-5v-5l2.5-2.5q3.17 2.33 10 1l-1-2-2.5-1.5-3.5-4.5-14-4-8-4h-10l-1-1h-7l-1-1h-9q-1-2-5-1l-1 1h-11l-1 1q-4.75-1.25-6 1h-7l-12 4-5 3h-4l-12 7h-4l-1.5-1.5v-4l-1-1-2-10q2-1 1-5l-1-3 1-1v-8q2.6-1.4 2-6l3.5-3.5 13-8h2l12-6 8-1z"/><path fill="#09d0c8" stroke="#09d0c8" d="m265.5 183 2.5 2.5 1 4-1 1v12l-1 1 2 5-2 6v7l2 3v3l2 4v5l2 4v4l5 11 6 8 1 4 3 3v2q4 2 5 7l13.5 15.5 23.5 18.5-.5 3.5-1.5.5-2.5 3.5-8 3-3 3-4 1-3 3-6 3h-9l-2-2-6-1q-1.75-3.25-6-4L259 308.5l-8-13-3-3-3-6v-3l-3-5-1-9-3-7-1-19 1-1v-8l2-4v-3l2-5v-4l3-4v-4l3-3 1-4 3-3 4-8 6.5-7.5zm412 16 .5.5-2.5 2.5-.5-.5z"/><path fill="#585657" stroke="#585657" d="m138.5 154 14.5.5-14.5.5zm28 0 9.5.5-9.5.5zm532 0 19.5.5-19.5.5zm106 0h9l3 1 3.5 3.5 4 6v2h-1q-2.25-6.75-7.5-10.5l-2-1h-9zm117 0 6.5.5-6.5.5-4 3h-2v-1zm74 0h9l7.5 5.5q-1 4 1 5v120l1 1v6h-1l-1-12-1-1v-118l-2.5-2.5-1.5-.5-.5-1.5-2-1h-9zm69 0 7.5.5-7.5.5q-5.5 2-8.5 6.5v122l-3 7 .5 1.5q-2.75-1.25-.5-2.5-1-4 1-5v-120l1-2q-2-1 0-2l1.5-2.5 1.5-.5.5-2.5q1 2 2 0 3.25.75 4-1Zm10 0 2.5.5-2.5.5zm124 0 .5 1.5-6 5-.5 92.5-2.5-.5v-3l-4-5v-4h1q-1 4.5 1.5 5.5l2.5-1.5 1-3-1-1v-9l1-3q-2.25-1.25-1-6l1-2q-2-1-1-5l1-1v-30l-1-1v-13q1.75-.75 1-4l-1-3q1.75-.75 1-4l4.5-4.5zm6 0 8.5.5-8.5.5zm59 0 48.5.5-48.5.5zm129 0h13l8.5 5.5q-1 4 1 5v156l-1 2q2.4 1.1 2 5l-1 1v6l1 3-3 2-1.5 2.5-1.5-.5q3.25-1.75 4-6-2-1-1-5 2-1 1-5l-1-1v-164l-2.5-2.5-5-3h-13zm96 0 17.5.5-17.5.5q-1 2-5 1l-5 3h-2l-2.5 2.5-1 13-2 2-.5 4.5-.5-6.5 3-6 .5-8.5 8-5h6zm-1311 1h2l4 3 4.5.5 1.5 2.5 8.5 6.5 1 3 6 8 1 5q2.85 1.65 3 6h-1l-2-3-1-6-1.5-2.5-1.5-.5q-.75-4.25-4-6v-2l-2.5-2.5-2.5-1.5-.5-1.5-5.5-3.5-.5-1.5h-4l-4-2zm396 0 3.5.5.5 1.5 3 1h5l2.5 2.5 1 2-1.5.5-2-4h-7l-1-1h-11l-1 1h-6l-2 2-.5-1.5 1.5-1.5 6.5-.5.5-1.5 3 1h5zm119 0 3.5.5q-3.42.08-4.5 2.5h-2v-1zm27 0h3q1.25 2.75 5.5 2.5l-4.5.5q-.5-2.5-4-2zm79 0 4.5.5-3.5.5-6.5 4.5-2 5v174l2 2-.5.5-2.5-1.5v-175l1-1 .5-4.5zm131 0h5l7.5 4.5 1 4 2 2v169l1 3-3 2-1.5 2.5-.5-1.5 4-4-1-1-1-2v-9l1-3-1-1v-151l1-2q-2.6-1.4-2-6l-2.5-2.5-7-3h-3zm56 0 .5 1.5-2.5 1.5-.5-.5zm93 0q3.5-.5 4 2l1.5-.5-.5 1.5h-2l-3-2zm52 0 5.5.5q-8.16.34-11 6 1 4-1 5v129l-1 1v40l3 5-.5.5-2.5-2.5-1-2v-171l2-2 1-5 2.5-2.5zm8 0q7.75-1.75 9.5 2.5l-1.5.5q-1.5-3.5-8-2zm76 0h2l5.5 4.5-1.5.5-6-4zm100 0 5 1 7.5 6.5-1.5-.5-8-6h-3zm74 0 2.5.5-7.5 3.5 1-2q3.5.5 4-2Zm119 0h3l5 3h2l3.5 3.5v7l3 8v7h-1v-5l-3-7v-9l-3.5-3.5-9-3zm-1046 2h12q1 2 5 1l3.5 2.5 1 3v48l1 3-1 1v95l1.5 1.5h37l3.5 2.5 1 6-2 1q1.75-.75 1-4l-3.5-4.5h-38l-1.5-1.5v-13l-1-2 1-1v-132l-3.5-4.5h-15l-2.5-1.5zm452 0 .5 1.5-1 1v6l-3 4q-.54 6.46-4 10l-.5 6.5-3 1-.5-.5 3-3v-4l4-8v-3l3-4q-1.5-6 1.5-7.5Zm347 0 .5 3.5q-2.75.75-2 5 1.75.75 1 4l-1 1v149l1 3-1 1v7l1 3-2 4 2 1 2.5 3.5h58l3-3 .5.5-3.5 3.5h-58l-5.5-5.5 1-3v-173zm329 0 12.5.5-1.5 1.5h-12zm-1134 1 4.5.5q-5.56-.06-7 4v153l-1 3 1 1v8l-1 2 1 1v10l1.5 1.5 19.5.5-20.5.5-1.5-1.5-1-6q1.75-.75 1-4l-1-1v-70l1-1v-15l-1-3q2-1 0-2l1-2-1-3q2-1 0-2v-42l1-2q-1.75-.75-1-4l1-1v-10q-1.75-.75-1-4 1.75-.75 1-4-2-1 0-2v-2zm232 0 .5.5-2 2q.75 4.75-2.5 5.5l-.5-1.5zm42 0 1.5 1.5v3l3 7v10h-1v-9l-3-6q.42-5.25-.5-6.5Zm420 0 4.5 5.5-2-1-3-4zm433 0 4.5.5q-3.81-.31-5 2l-2 4 1 1v105l-1 2q1.75.75 1 4-1.75.75-1 4 1.75.75 1 4l-1 1v38q1.75.75 1 4l-1 1v6l1 1q-1.25 4.75 1 6l-2-1-2-6q2-1 0-2 2.17-2.83 1-9l-1-3 1-3q-1.75-.75-1-4l1-1v-10l-1-1v-13l1-1v-125zm23 0q4-.5 4.5 2.5l1 2v148l1.5 1.5 36.5.5-37.5.5-1.5-1.5v-149l-3.5-3.5q-2.37-.12-1-1Zm-625 1 .5 49.5h-1zm106 0 .5 3.5h-1zm136 2 .5 40.5h-1zm161 1 .5 10.5h-1zm-795 2 1.5.5-1 1v6q2 1 0 2v121l-1 3 2 5-1 1v7l1.5 1.5 18.5.5-18.5.5-2.5-2.5q1-4-1-5l1-3-1-1v-42l1-1v-9q-1.75-.75-1-4 1.75-.75 1-4l-1-1v-6l1-3-1-1v-29l1-3-1-1v-24l1-3q-1.75-.75-1-4zm739 0 6.5 9.5v3l3 5 1 6 3 7v4h-1v-4l-2-2-1-8-3-4-1-7-3-3v-2l-3-4zm-173 1 3.5 5.5v4l3 5h-1l-3-5v-3l-3-4zm-472 2 .5 2.5h-1zm142 1 2.5 4.5-.5.5-2.5-2.5zm-141 3 .5 3.5h-1zm144 4 3.5 10.5h-1l-3-6zm-145 1 .5 5.5-3 9v9q-2 1-1 5l-2 2-.5 7.5-.5-8.5 3-7v-9l1-1zm701 1 .5 20.5h-1zm-649 4 2.5 8.5v6h-1v-4l-2-5zm427 0 .5 2.5 3 4 1 6 4 6q-2 1 0 2l2 3v3l4 7v2h-1l-4-11-2-2-1-5-3-4-1-6-3-4zm308 1 .5 10.5-3 9q2 1 0 2l-.5 4.5-.5-8.5 2-6-1-2 2-1zm-1358 1 .5 8.5 1 1v7h-1v-7l-1-1z"/><path fill="none" stroke="#585657" stroke-linecap="round" stroke-linejoin="round" stroke-width="1.02" d="M144.5 184h25l7.5 4.5q-.75 5.25 3 6v4h-1l-.5-3.5-1.5-.5-1-5-1.5-1.5-8-3h-20l-2.5 2.5v38l-1 1 1 1v8l2.5 2.5q.75-1.75 4-1l1 1h13l3-1h3l5-5-.5 1.5-3.5 4.5q-3.25-.75-4 1h-17q-1-2-2 0h-3l-4.5-3.5 1-2v-46z" data-centerline="1"/><path fill="#585657" stroke="#585657" d="m1294.5 186 6.5.5-.5 1.5-5-1-4.5 2.5-1 12 1 1v9l-1 1v17l1 1v24q-1.75.75-1 4l1 1v45l-2-1q2-1 1-5-1.75-.75-1-4l1-1v-8l-1-1v-7l1-1v-16l-1-1v-67q1.75-.75 1-4l1.5-1.5zm-463 1q3.25 3.75 3.5 10.5l2 2 1 5h-1v-2l-3-5v-3l-3-5zm471 0 2.5 1.5.5 2.5 2.5 1.5-.5 5.5-.5-4.5-5-6zm222 0 1.5 8.5 1 1v4l1 1v8h-1v-7l-2-4zm-623 1 .5 5.5-3 4v5q-3 2-3.5 6.5l-.5-3.5 3-4v-4l1.5-3.5 1.5-.5zm-692 5 .5 5.5 1 1v5l1 1v16l-2 5-.5 7.5-.5-11.5 1-1v-17l-1-1zm528 4 .5 6.5 3 8v7h-1v-5l-3-8z"/><path fill="#585657" stroke="#585657" d="m1308.5 199 2.5 3.5 1 12 1 1v7l1 1v8l1 1v44l-1 1v5l-2 5v8q-1.75.75-1 4-3.86 1.64-3 8l-4.5 4.5q-2.83 2.17-9 1l-4.5-5.5h1l2.5 3.5 3 1h5l2.5-1.5.5-1.5 2.5-1.5v-4q2.75-2.25 2.5-7.5l1.5-.5v-8l1-1v-7l1-1v-10l1-1v-31l-1-1-1-7q1.75-.75 1-4l-1-1-1-15-3-8zm-1128 1 .5 19.5h-1zm-69 1 .5 134.5h-1zm1230 0 1.5 4.5v4l1 1 1 20 1 1v11l1 1q-2 1 0 2v15l-1 1q1.75.75 1 4-2 1-1 5l1 3-2 2-.5 5.5-.5-5.5 1-1v-38l-1-1v-16l-1-1q1.25-4.75-1-6v-7q-2.13-1.13-.5-4.5Zm42 0 .5 28.5h-1zm-545 5 3.5 6.5v4l3 4h-1l-.5-1.5-2.5-1.5v-5l-3-4zm56 4 .5 2.5-3 4v5q-3.25 1.25-3.5 5.5l-.5-3.5 3-3q-1.5-6 1.5-7.5l1.5-.5zm571 1 .5 5.5-3 8-.5 6.5-.5-6.5 1-1v-6q2.49-2.01 2.5-6.5Zm63 0 2.5 7.5v5h-1l-2-6zm-548 2 .5 13.5h-1zm-305 2 .5 8.5-1 1v7l-2 3v8l-2 6q2 1 0 2l-2 3-.5 8.5-.5-9.5 2-3v-4l2-4v-9l2-6-1-2 2-2zm31 0 2.5 1.5 2 4 1 12h-1q.75-4.75-2.5-5.5l-1.5-.5 1.5-.5 1.5.5-.5-1.5-3-1-1 4-.5-6.5 2-4h-2zm516 1 .5 20.5h-1zm274 1 1.5.5-.5 1.5-1.5.5-.5 5.5-.5-5.5zm-320 1 2.5 4.5-.5.5-2.5-2.5zm-997 4 .5 4.5-3.5 4.5-.5-1.5zm666 0 .5 4.5 2 2 1 6 3 4v2l-2-1-2-5v-3l-3-5zm-105 2 1.5.5v3l2 5 1 10h-1l-1-3v-5l-2-5v-4zm439 0q-.13 5.13 3.5 6.5-.75 4.75 1.5 6.5l1.5.5-.5 1.5-2.5-1.5-1-6-3-4zm352 1 .5 9.5 3 9v8h-1v-7l-3-8zm-37 2 .5 3.5-3 9v9l-2 4v6l-1 1-.5 5.5-.5-9.5 3-9 1-14zm5 0 2.5 5.5-1 3 2 4-2-1-.5-1.5-1.5-.5 1-4q-2.35-1.35-.5-5.5Zm-612 1 .5 3.5-3.5 4.5-.5-1.5q3-2 3.5-6.5Zm-183 1 .5 11.5-3 7v9l-1 1v4l-2.5 7.5-.5-5.5 3-7v-11l1.5-4.5 1.5-.5zm758 3 .5 3.5-3 6q2 1 0 2l-1 16-3.5 11.5-.5-3.5 1-1v-8l2-2q-1-4 1-5v-12l3-4zm-750 2 .5 3.5-1 3 3 5 1 11h-1l-1-9-3-9zm-504 2 .5 2.5-2.5 2.5-.5-.5zm675 2 .5 4.5-3 3v5l-3 4-.5 3.5-.5-4.5 3-4v-4l3-4zm339 3 .5 3.5h-1zm-370 1 .5 2.5 3 4v4l3 5v2h-1l-3-6v-5l-3-4zm-647 1 .5 2.5-3.5 3.5-.5-.5.5-1.5 2.5-1.5zm539 1 1.5 3.5 1 9 1 1v5h-1v-3l-2-5v-6l-1-1zm410 1 1.5.5 1 2-3 1v90l-2.5 3.5-1.5-.5 3-3v-92zm348 0 2.5 12.5 1 1v5h-1v-5l-3-5q2-1 0-2zm-1301 6 .5.5-2.5 2.5-.5-.5zm619 2 2.5.5 3 6-1.5-.5-1.5 1.5v9q-2 1-1 5l1 1v30q-1.75.75-1 4l1 3-1 3 1 1v6q-2.25 1.25-1 6l1 2-1 3q1.75.75 1 4l-2 1-1.5 2.5.5-1.5 1-5-1-3q1.75-.75 1-4l-1-2 1-1v-51l-1-3 1-1v-13q-1.92-.92-.5-3.5Zm715 0 .5 6.5 2 4v7q1.75.75 1 4h-1l-1-3v-6l-2-4zm-625 2 2.5.5-.5 3.5-1-2-1.5-.5zm-714 1 1.5.5-9.5 6.5v-1zm962 0 2.5 1.5-.5 3.5zm-443 2 3.5 13.5-2.5 1.5.5-1.5q.8-5.3-2-7zm507 0 .5 73.5h-1zm-346 1 .5 1.5-3 5-1 6-2 2-1 6-1.5 1.5-2.5-1.5.5-1.5 2 1 1.5-3.5v-3l3-4q-.03-6.53 3.5-9.5Zm33 1 .5 2.5-3.5 6.5-.5-2.5q3-2 3.5-6.5Zm176 0 .5 2.5h-1zm-259 1 .5 3.5h-1zm33 0 6.5 15.5-.5.5-2.5-2.5v-3l-4-9zm302 1 1 2 1.5.5v5l3 3 1 5h-1v-2l-4-6v-3l-2-3zm-976 1 1.5.5-4.5 3.5h-4v-1q6 1 7-3Zm727 0 .5 6.5h-1zm-245 1 .5 8.5-2 3-1 15-3 7v10l-1 1v5q-2.75 3.25-2.5 9.5l-.5-7.5 3-8v-10l1-1v-4l3-9v-9l1-1v-5zm81 1 .5 6.5 2 3q-1.25 4.75 1 6v8h-1l-1-13-2-3zm757 0 1.5 6.5-2.5 2.5h-15q-3.75-1.25-2.5-7.5h1q-1.25 5.25 1.5 6.5h15l1.5-1.5-1-3zm-678 1q3 .5 2.5 4.5h-1l-2-3zm-659 1 8.5.5-9.5 1.5-1 1h-21l-1.5 1.5v63l1 1q-1.75.75-1 4l-1.5 1.5-2 1 .5-1.5 2-3v-14l-1-1v-51l2.5-2.5h18zm737 3 .5 3.5q-4.29 2.21-3 10l-3.5 4.5-.5-2.5 3-2v-6zm180 0 .5 6.5h-1zm-172 1 .5 5.5h-1zm-214 2 4.5.5-4.5.5zm12 0 2.5.5-2.5.5zm119 0 .5 2.5 3 4v4h-1v-3l-3-4zm625 0 .5 4.5q-2 1-1 5l-3 5 1 2h-1l-1-3zm84 4 .5 5.5 2 3v6h-1q.8-5.3-2-7zm-627 1 .5 6.5h-1zm256 1 2.5 5.5h-1l-2-3zm-83 3 .5 2.5h-1zm-104 1 .5 10.5q4.75 1.75 3 10h-1l-1-6-2-2zm363 1 .5 7.5q-1.75.75-1 4l.5 1.5-1.5-.5zm-510 1 3.5 5.5v7l1.5 1.5 1.5.5-.5 3.5q-.25-4.25-3.5-5.5l-.5-6.5-2.5-1.5zm337 1 .5 4.5 3 4h-1l-.5-1.5-2.5-1.5zm212 2 .5 21.5h-1zm-485 1 .5 3.5-3 5-1 7-3 4v4l-3 4-1 7q-2.42 1.08-2.5 4.5l-.5-3.5 3-5v-4l3-4v-3l3-5 1-6 3-5zm-146 1 2.5 5.5v6h-1q1.25-5.75-2-7zm333 0 .5 2.5-3.5 10.5-.5-3.5zm366 1 .5 10.5-3 7 1 2-1.5 3.5-.5-9.5 3-5zm-539 1 .5 9.5h-1zm102 1 2.5 5.5-.5.5-2.5-2.5zm38 0 .5 2.5-3.5 4.5-.5-1.5q3.25-1.25 3.5-5.5Zm-495 2 .5 3.5h-1zm618 1 .5 2.5h-1zm367 1q-.45 5.95 3.5 7.5-1.75.75-1 4l1 1v10l1.5 3.5 1.5.5q-2 1-1 5l1 1v6l-7.5 6.5v-1l1.5-.5.5-1.5 3.5-2.5 1-5-1-1-1-9-1-1v-11l-2-2q.75-3.25-1-4zm-201 1 2.5.5-2 1-.5 1.5zm-324 2 1 2 3.5 2.5 2.5 3.5q4.25.75 6 4h6l2-3q5.12.62 6.5-2.5l3.5-4.5 1.5.5-6.5 6.5-4 1-3 3h-7l-2-3-4-1-3.5-3.5-.5-1.5-1.5-.5zm-460 2 .5 5.5h-1zm620 0 1.5 1.5q-1 4.5 1.5 5.5l1.5.5-.5 3.5-1-3-2.5-1.5q.42-5.25-.5-6.5Zm-482 1 8 1q.75-1.75 4-1l1 1h6l2-1q1 2 2 0 4.75-.75 5.5 2.5-.4 3.9 2 5v7h-1v-6l-4.5-6.5h-8l-3 1-1-1h-7l-3 1-3-1-3.5 3.5-1 3-1 16q-3.17 3.33-2 11l-1.5 1.5q-3.5-.5-4 2h-3v-1h2l5.5-3.5q.75-3.25-1-4l3-8q-1-4 1-5v-9q2-1 1-5l1.5-1.5zm218 0 .5 2.5-1 1-.5 14.5-.5-14.5zm586 0h5l1 1 5.5.5 1 2-1.5-.5-11-1-1 1h-13l-2-1-2 3-.5-2.5 1.5-1.5h11q.75 1.75 4 1zm-418 1 .5 2.5-3 4v5l-3.5 3.5-.5-1.5 2-1q1.67-1.83 1-6zm-96 1 2.5 5.5-.5.5-2.5-2.5zm355 0 .5 4.5-2 3-2 9-2.5 2.5.5-1.5 2-4 1-8q2.75-1.25 2.5-5.5Zm172 3 1.5 2.5v5l2 3q-1.25 4.75 1 6v11l3 4-.5.5-2.5-2.5-1-2v-10l-2-3-1-12q-1.75-.75-.5-2.5Zm-757 1 1 5 1.5.5-1 3 2 5v4h-1l-2-6v-4l-1-1zm86 0 3.5 2.5v4l3 3v5l4 7v3h-1q.5-3-1.5-3.5l-1.5-.5 1-2-2-4v-4l-3-4-.5-4.5q-3.81-.69-2-2Zm639 1 .5 6.5q-2.25 1.25-1 6l-2 2-1 12-5.5 5.5-4 1v-1q5.38-1.12 7.5-5.5l2-6 1-12q2.4-1.1 2-5l-1-2zm-868 2 7.5.5-7.5.5zm-55 1 .5 3.5h-1zm65 0 4.5.5-4.5.5zm6 0 1.5 1.5 1 18q-2.25 1.25-1 6l.5 1.5-1.5-1.5v-7l1-1v-7l-1-1q.67-7.5-.5-9.5Zm360 0 3.5 5.5h-1l-3-4zm662 0 2.5 1.5 1 3v18q-1.75.75-1 4l-3.5 3.5-66.5-.5 67-1 3-6v-18l-3-4zm-468 2 3.5 4.5v5h-1v-4q-4.25-1.25-2.5-5.5Zm201 1 .5 4.5h-1zm64 3 .5 1.5-1.5 2.5-.5-1.5zm-455 1 2.5 2.5-.5.5-2.5-2.5zm81 0 1.5.5-3.5 4.5-2.5 1.5q-.62 3.88-3.5 5.5l-5 4-.5-.5 2-2 .5-1.5 4.5-2.5 1-3zm-516 1 .5 3.5h-1zm-32 2 .5 7.5h-1zm201 0 1.5 3.5q-2 1-1 5l3 4v3l2.5 2.5 1.5.5-1.5.5-3.5-3.5v-2l-3-4zm186 0 .5 7.5h-1zm-255 1 .5 12.5 2 2-1.5.5-1.5-1.5-1-7 1-1zm338 0 5 7 1.5.5-1.5.5-5.5-6.5zm338 1 .5 3.5-2.5 3.5-1.5-.5 1.5-2.5 1.5-.5zm111 0 2.5 3.5-2.5 3.5.5-1.5zm-560 4 .5 2.5-3 4-.5 2.5-.5-3.5zm305 1 2 6 1.5.5-.5 2.5-1-2-1.5-.5-1-3zm194 1 .5 6.5h-1zm-162 2 .5 3.5-3 2-2.5 3.5-3.5-.5 2.5-.5 5.5-5.5zm108 0 .5.5-2.5 2.5-.5-.5zm115 0 1 2 5.5 4.5-.5 1.5-6.5-5.5zm-919 2 .5 2.5h-1zm327 0 1 2 3.5 1.5.5 2.5 1.5.5-1.5.5-2-3-3.5-2.5zm154 0q3-.5 3.5 1.5l-1.5-.5q-3 .5-2-1Zm-248 1 .5 1.5-5.5 4.5h-3v-1q3.75.75 4.5-1.5l.5-1.5zm299 0 1.5.5-2.5 2.5h-3q-1.65 2.85-6 3v-1l5-3h3zm-946 1 .5 2.5h-1zm801 1 4.5 3.5-2.5.5-2.5-3.5zm98 0q4.5-1 5.5 1.5l.5 1.5 2.5.5-3.5.5-2-3q-4 .75-3-1Zm-486 1 .5.5-2.5 2.5-.5-.5zm137 0 4.5 2.5-2.5.5-2.5-2.5zm217 0 .5.5-2.5 2.5-.5-1.5zm-249 2-1 2-2.5-.5zm568 0 2.5.5-2.5.5zm258 0 2.5.5-2.5.5zm-1339 1 22.5.5-22.5.5zm363 0 13.5.5-13.5.5zm28 0 13.5.5-13.5.5zm54 0 4.5.5-4.5.5zm7 0 53.5.5-53.5.5zm101 0 7.5.5-7.5.5zm71 0 6.5.5-6.5.5zm55 0 10.5.5-10.5.5zm13 0 2.5.5-2.5.5zm52 0 8.5.5-8.5.5zm11 0 3.5.5-3.5.5zm47 0 19.5.5-19.5.5zm103 0 7.5.5-7.5.5zm11 0 12.5.5-12.5.5zm97 0 19.5.5-19.5.5zm72 0 9.5.5-9.5.5zm188 0 17.5.5-17.5.5zm70 0 5.5.5-5.5.5zm71 0 6.5.5-6.5.5z"/><path fill="#9d9799" stroke="#9d9799" d="m693.5 154 4.5.5-4.5.5zm25 0 3.5.5-3.5.5zm81 0 4.5.5-4.5.5zm129 0 3.5.5-3.5.5zm58 0 8.5.5-8.5.5zm19 0 3.5 2.5-.5.5-2-2q-2.37-.13-1-1Zm56 0 2.5.5-2.5.5zm16 0 2.5.5-2.5.5zm54 0 13.5.5-13.5.5zm65 0 1.5.5-5.5 4.5.5-1.5.5-1.5zm3 0 4.5.5-4.5.5zm14 0 2.5.5-2.5.5zm49 0 .5.5-3 3-2.5 7.5-.5-3.5zm50 0h5l9.5 6.5 3 5-.5.5-2.5-2.5-4.5-5.5-5-3h-5zm76 0 3.5.5q-4.25-.25-5.5 2.5l-.5-.5zm94 0 5.5.5-5.5.5zm24 0 2.5.5-2.5.5zm-939 1 1 1 5.5.5-5.5.5zm10 0 1 2-1.5-.5zm146 0 2.5 1.5-1.5.5zm74 0 .5.5-2.5 2.5-.5-.5zm20 0 4.5 5.5-2-1-3-4zm118 0q4-.5 4.5 2.5l-1.5-.5q-3.75-.25-3-2Zm282 0 2.5 2.5-.5.5-2.5-2.5zm191 0 4.5 1.5 1 2-.5.5-2-2q-3.75-.25-3-2Zm71 0 1.5.5-3.5 2.5-.5-.5zm32 0 5.5 2.5-1.5.5-4-2zm-1046 1 7.5.5-7.5.5zm518 0 .5.5-2.5 2.5-1.5-.5zm73 0 1.5.5-.5 1.5-2.5 1.5-.5 1.5-.5-1.5zm533 0 8.5.5-13.5 1.5v-1q4 1 5-1Zm10 0 5.5 1.5-2.5.5-3-1zm-1416 1 2.5.5-2.5.5zm275 0 2.5.5-2.5.5zm-4 1 .5.5-2.5 2.5-.5-.5zm25 0 2.5 1.5-1.5-.5q-2.38-.12-1-1Zm78 0-.5 1.5-.5 154.5-.5-154.5zm235 0 1.5.5-2.5 1.5zm429 0 1.5 2.5h-1zm253 0 1.5.5-2.5 1.5zm44 0 2.5 2.5-.5.5-2.5-2.5zm90 0 2.5 3.5h-1zm-1420 1 7.5 6.5-.5.5-5-5q-3.81-.69-2-2Zm1194 0 .5 180.5h-1zm-192 1 1.5.5-1.5 4.5zm224 0 .5 3.5h-1zm-826 1 1.5 2.5h-1zm96 0-.5 1.5-.5 1.5-.5-1.5zm47 0 2.5 4.5v3h-1v-3l-2-3zm59 0 .5 3.5h-1zm789 0-.5 1.5-.5 125.5-.5-125.5zm-1128 1 .5 1.5q-2 1 0 2l-1 7 1 1v10q-1.75.75-1 4l1 2-1 1v42l.5 1.5-1.5-1.5v-51q2-1 0-2v-10q1.75-.75 1-4l-1-2zm492 0 1.5 2.5-2-1zm-32 1 .5 1.5-2.5 1.5v-1l1.5-.5zm212 0 .5 1.5-2 2v171l2 3-2-1-1-2v-171zm-534 2 .5 6.5h-1zm497 0 .5 125.5h-1zm435 0 .5 3.5h-1zm-576 1 .5 6.5h-1zm246 0 .5 3.5-1 1v13l1 1v30q-2 1-1 5l1 2-1 1-.5 4.5-1.5-2.5 2-4q-2-1-1-5l1-1v-30l-1-1v-13zm281 0 .5 2.5h-1zm-1274 2 3.5 4.5-.5.5-2.5-2.5zm627 1 2.5 3.5v2h-1zm-143 1 .5 5.5h-1zm226 0 .5 1.5-3.5 7.5-.5-2.5q2-1 0-2l3-3zm563 0 .5 1.5-1.5 2.5-.5-1.5zm51 0 1.5.5-.5 5.5zm-933 3 .5 121.5-1 3q1.75.75 1 4h-1l-1-6 1-1zm880 2 .5 6.5h-1zm-1266 1 2.5 3.5h-1zm625 1 2.5 3.5v3h-1q.4-3.9-2-5zm332 0q2 .5 1.5 3.5h-1zm-479 1 .5 1.5-1 1v4l-1.5 4.5-.5-3.5q2.25-1.25 1-6zm654 0 2.5 3.5v2h-1zm189 2 .5 6.5h-1zm-1318 2 3.5 5.5v5h-1v-5l-3-4zm529 0q2.25 1.75 1.5 6.5h-1v-4q-1.75-.75-.5-2.5Zm169 1 .5.5-2.5 2.5-.5-.5zm258 0 2.5 3.5h-1zm-1016 2h20l6.5 2.5-1.5.5-5-2h-15q-1 2-2 0-3.75-.75-4.5 1.5l-.5 1.5-.5-1.5zm799 2 .5 139.5h-1zm350 0 3.5.5-3.5.5zm43 0q2 .5 1.5 3.5h-1zm187 3 1.5 1.5 1 9h-1v-4l-2-5zm-788 1 .5 5.5h-1zm567 0 2.5 2.5-.5.5-2.5-2.5zm-1193 1 .5 8.5h-1zm789 0 .5 1.5-1.5.5zm266 0 2.5 1.5-1 2 1 2h-1l-2-4zm300 0 1 2-1.5-.5zm-176 2 .5 7.5h-1zm-1080 1 1.5 3.5v6l1 1v14h-1v-14l-1-1q1.25-4.75-1-6zm625 2q3 .5 2.5 4.5h-1v-2l-2-2zm506 1 .5 2.5h-1zm-1162 1 .5 22.5h-1zm498 1 .5 2.5-2 3-.5 9.5-.5-9.5zm492 0 2.5 3.5-2-1zm-272 1 .5.5-2 2-.5 1.5-.5-1.5zm411 0 1.5 5.5h-1zm-1164 1 .5 7.5h-1zm594 0 2.5 5.5v3h-1v-3l-2-4zm484 0 .5 13.5h-1zm120 1q2.25 1.75 1.5 6.5h-1v-4q-1.75-.75-.5-2.5Zm-859 2 .5 6.5h-1zm411 1 .5 3.5h-1zm571 0 .5 4.5h-1zm-626 1 2.5 4.5h-1zm141 2 .5 3.5h-1zm193 0 2.5 4.5h-1zm-280 2 .5 1.5-2.5 1.5-.5-.5zm397 1 .5 17.5h-1zm54 0 .5 6.5h-1zm-1200 1 .5 2.5h-1zm1320 0 .5 1.5-2 3-.5 6.5-.5-7.5zm65 0 1.5 4.5h-1zm-1046 2 .5 4.5h-1zm359 0 1 2 1.5.5 1 4h-1v-2l-3-3zm469 0 .5 7.5h-1zm-570 2 .5 6.5h-1zm149 0 .5 3.5h-1zm287 2q3 .5 2.5 4.5h-1v-2l-2-2zm319 0 1.5.5-.5 1.5-1.5-.5zm-822 2 .5 1.5-2.5 2.5-.5-.5zm-463 1 .5 4.5-1.5 2.5-.5-2.5zm677 0-.5 1.5-.5 4.5-.5-4.5zm643 0 .5 2.5h-1zm-1353 2-.5 1.5-.5 1.5-.5-1.5zm528 0 3.5 1.5-.5 1.5-2-1-1.5.5zm606 0 .5 3.5-2 1zm183 1 .5 4.5h-1zm3 0 .5 3.5h-1zm-825 1 .5 2.5-1.5 3.5-.5-2.5zm69 0q2.5 1 1.5 5.5h-1zm104 0 2.5 1.5-.5 3.5zm134 1 .5 60.5h-1zm200 0 2.5 2.5-.5.5-2.5-2.5zm-475 1 .5 11.5h-1zm486 0 .5 2.5-1 1-.5 6.5-.5-6.5zm154 0 .5 2.5h-1zm-1170 2 .5 1.5-5.5 5.5-.5-.5zm308 0 .5 17.5h-1zm829 1 .5 4.5 1 1v10h-1v-10q-2.35-1.35-.5-5.5Zm182 0 .5 5.5-2 1zm-311 1 .5 2.5h-1zm163 0 .5 4.5 1 1-1 2q2 1 0 2l-.5 1.5zm115 0 .5 3.5-2.5 3.5-.5-1.5q2.75-1.25 2.5-5.5Zm38 0 .5 2.5h-1zm33 0 2.5 10.5h-1l-1-7-1-1zm-821 1 .5 4.5h-1zm33 0 .5 5.5h-1zm105 0 2.5 4.5-2-1zm-640 1 .5 3.5h-1zm462 1 .5 6.5h-1zm212 0 .5 2.5h-1zm-732 2 13.5.5-13.5.5zm300 0-.5 1.5 1 2-1 3 1 1v15l-1 1v70q1.75.75 1 4l-1 3 1 2h-1l-1-5 1-3-1-1v-71l1-3-1-1v-6q2-1 0-2v-9zm771 0 .5 3.5h-1zm-1014 2 .5.5-2.5 2.5-.5-.5zm1284 0 .5 3.5h-1zm9 0 .5 7.5h-1zm-797 2 .5 1.5-2.5 6.5-.5-1.5zm178 0 .5.5-2 2-.5 1.5-.5-2.5zm-213 2 1.5.5-1.5 6.5zm76 0 .5 3.5h-1zm108 0 1.5 2.5-2-1zm337 0 .5 1.5-2.5 1.5-1-2q1.5 2.5 3-1Zm268 0 .5 8.5h-1zm-112 1 1.5.5v22l-1 3 1 2-2-1 1-8q-2-1 0-2v-15zm-124 1 .5 12.5h-1zm-1017 1 .5.5-3 3-.5 1.5-.5-1.5zm508 1 .5 3.5h-1zm33 1 1.5 4.5v4h-1zm408 0 2.5.5-.5 2.5-1-1-1.5.5zm-298 1 .5 3.5h-1zm635 0 .5 2.5-1 1-.5 7.5-1.5-.5 1-1v-6zm-634 5q3.12 1.37 2.5 6.5h-1v-3zm433 1 .5 3.5h-1zm167 0 .5 1.5-2.5 1.5-.5-.5zm-743 1 .5 2.5h-1zm162 0 .5 2.5-2.5 3.5-.5-1.5q2.42-1.08 2.5-4.5Zm627 0q2.06 1.44 1.5 5.5h-1zm33 0 1.5 3.5v3h-1l-1-3zm-1340 1 .5.5-2.5 2.5-.5-.5zm505 0 .5 3.5h-1zm209 0 1.5.5 1 2-2.5.5zm-427 2 .5 3.5h-1zm265 0 .5 5.5h-1zm76 0 1 2-2 1-.5-1.5zm-632 1 .5.5-3.5 3.5-2.5-.5q4.25-.25 5.5-3.5Zm1121 0 .5 7.5-2 1 1-3zm142 0 .5 6.5h-1zm-788 1 .5 2.5h-1zm493 0 2.5 5.5-2-1q-1.75-1.75-.5-4.5Zm-460 1 .5 2.5-1.5 3.5-.5-2.5zm-515 2 .5.5-2.5 2.5-.5-.5zm1353 0 .5 6.5h-1zm-823 1 1.5 3.5h-1zm773 0 .5 3.5h-1zm-616 2 .5 1.5-2.5 3.5-.5-1.5zm-700 1 2.5.5-3.5 1.5h-4v-1q4 1 5-1Zm577 0q-.25 4.25 2.5 5.5v6h-1v-5q-3.11-2.01-1.5-6.5Zm114 0 .5 2.5h-1zm-165 1 1.5 3.5-2-1zm208 0 .5 3.5h-1zm599 0 .5 2.5-2 1zm-1357 1 12.5.5-12.5.5zm674 0 1.5 4.5v9h-1v-8q-2.35-1.35-.5-5.5Zm90 0 .5 7.5h-1zm-197 1 1.5.5-1.5 1.5h-11v-1h10zm449 1 2.5 4.5h-1l-2-3zm148 0 .5 6.5h-1zm-448 1q2.83 1.17 3 5l1.5.5-1.5.5-3.5-5.5zm5 0 .5 2.5h-1zm36 1-.5 1.5-1.5 3.5-.5-1.5zm-241 1 .5 8.5h-1zm681 0 .5 2.5h-1zm109 0 .5 1.5-2 2-.5 4.5-.5-4.5zm-624 2 2.5 3.5-2-1zm710 1 1.5 6.5h-1q-1.98-2.32-.5-6.5Zm-229 3 .5 5.5h-1zm-478 3 .5 2.5h-1zm69 0 .5.5-2.5 2.5-.5-.5zm-239 1 .5 3.5q-2.53 2.97-2.5 8.5l-.5-4.5zm249 0 .5 6.5h-1zm140 2 .5 2.5h-1zm399 1 .5 2.5h-1zm91 0 .5 8.5h-1zm-528 2 .5 2.5h-1zm-261 1q2 .5 1.5 3.5h-1zm-609 1 .5 6.5h-1zm1200 0 .5 3.5h-1zm-446 1 .5 1.5-2 1zm187 0 .5 5.5-2 1-.5 1.5-.5-1.5 2-2zm88 0 1.5 3.5h-1zm-122 1 .5 1.5-2.5 2.5-.5-.5.5-1.5 1.5-.5zm-70 2q2 .5 1.5 3.5l-1.5.5zm-226 1 .5 6.5h-1zm589 0 .5 1.5-2.5 1.5v-1l1.5-.5zm-507 1 2.5 2.5-.5.5-2.5-2.5zm613 0 .5 1.5-2.5 4.5-.5-1.5zm93 2 1 2 1.5.5-.5 1.5q-3.62-1.13-2-4Zm-648 1 .5 3.5-2.5 2.5-.5-.5q2.75-1.25 2.5-5.5Zm446 0 .5 4.5h-1zm-1197 1 .5 32.5h-1zm768 0 .5 3.5h-1zm666 0 .5 10.5h-1zm-989 1 .5 7.5 1 1-2-1zm493 0 .5 2.5h-1zm-422 1 .5 3.5h-1zm324 0 .5 3.5h-1zm61 0-.5 1.5-1.5 2.5.5-1.5zm-350 1 2.5.5q-3.83.17-5 3l-1.5 6.5-.5-3.5 1-3zm6 0 7.5.5-7.5.5zm11 0h8l2.5 2.5 2 4v5l-2-1q1.75-.75 1-4l-3.5-5.5h-8zm43 0 .5 3.5h-1zm744 0 6.5.5-6.5.5zm46 0 .5 3.5h-1zm-723 1 .5 3.5h-1zm332 0 .5 6.5h-1zm-73 1 .5 1.5-2.5 2.5-.5-.5zm210 1 3.5 1.5-.5 1.5-3.5-2.5zm-633 1 1.5.5-2 6-.5 8.5-.5-8.5 1-3q-2-1 0-2zm327 0q3 .5 2.5 4.5h-1v-2l-2-2zm43 0 2.5 2.5-.5.5-2.5-2.5zm270 1 3.5 1.5-5.5.5v-1zm42 0 .5 1.5-1.5 2.5-.5-1.5zm172 0 .5 4.5h-1zm-756 1 .5 2.5h-1zm-147 1 2.5.5-2.5.5zm11 0h8l1.5 1.5-1.5-.5h-8zm1029 0q4-.5 4.5 2.5l-.5 2.5-1-3q-3.75-.25-3-2Zm-827 1 .5 2.5h-1zm625 0 .5 5.5h-1zm-690 2 .5 2.5h-1zm231 0 2.5 2.5-.5.5-2.5-2.5zm350 0 .5 2.5h-1zm-782 1 .5 19.5h-1zm288 0 2.5 3.5-1.5.5q-2.37-1.62-1-4Zm-21 1 .5 3.5h-1zm331 0 .5 2.5h-1zm326 0 .5 5.5-2.5 3.5-.5-1.5 2-2zm33 0 .5 5.5q2.4 1.1 2 5h-1q.4-3.9-2-5zm65 0 .5 2.5h-1zm-853 1 .5 2.5h-1zm33 1 .5 2.5h-1zm233 0 3.5 4.5-.5.5-3.5-3.5zm-103 1 .5 2.5h-1zm-198 1 .5 5.5h-1zm384 0 .5.5-2.5 2.5-.5-.5zm-349 1 .5 2.5h-1zm611 0 .5.5-2 2-.5 1.5-.5-1.5zm-514 1 1.5 7.5-1 3 1 3h-1l-1-5 1-2-1-1zm435 0 .5 7.5h-1zm321 0 .5 7.5h-1zm-947 1 .5 8.5-1 3-.5 3.5-.5-5.5 1-1zm256 0-.5 1.5-.5 1.5-.5-1.5zm661 0 .5 4.5h-1zm-789 2 .5 10.5h-1zm685 1 .5 3.5h-1zm-755 1 .5 4.5-2 1zm726 0 .5 6.5h-1zm-566 2 1 2-1.5-.5zm-324 1 .5 3.5h-1zm387 0 .5 2.5h-1zm565 0 .5 5.5h-1zm72 0 .5 3.5h-1zm-824 1 3.5 5.5h-1l-3-5zm339 0 .5.5-3.5 3.5-.5-.5zm158 0 .5 5.5q-.5 2-3.5 1.5v-1l2.5-1.5zm108 0 .5 1.5-6.5 7.5-3 2-.5-.5 3.5-3.5 2.5-1.5zm-385 1 1.5 2.5-2-1zm-94 1q.08 3.42 2.5 4.5l-1.5.5q-2.69-1.19-1-5Zm303 0 .5 2.5h-1zm424 1 1.5 4.5-2-1zm-1434 1 .5 2.5h-1zm864 0 1.5 2.5h-1zm437 0 3.5 3.5-.5.5-3.5-3.5zm71 0 5 6 1.5.5-2.5.5-4.5-5.5zm32 0 1.5.5-7.5 6.5h-2v-1h2zm105 0 .5 2.5h-1zm-1097 1 .5 2.5h-1zm-31 1 .5 1.5-4.5 3.5v-1l3.5-2.5zm355 0 1.5.5-6.5 4.5v-1zm377 0 4.5 4.5-.5.5-4.5-4.5zm157 0 1.5.5-4.5 4.5h-4v-1q4.5 1 5.5-1.5zm-755 1 3.5 2.5-1.5-.5q-3.81-.69-2-2Zm70 0 3 3 7.5.5-7.5.5-3.5-3.5zm27 0 .5.5-3.5 3.5-6.5-.5 6.5-.5zm99 0 1.5 2.5-2-1zm158 0 1 2-1.5-.5zm40 0 .5.5-2.5 2.5q-1.83 1.67-6 1v-1q6.36.86 8-3Zm139 0 2.5 3.5-.5.5-2.5-2.5zm282 0 .5.5-2.5 2.5-.5-.5zm-790 1 1.5.5-2.5 2.5-.5-.5zm136 0 .5.5-2.5 2.5-5.5-.5 5.5-.5zm832 0 .5.5-2.5 2.5-.5-.5zm-1511 1-1 2-1.5-.5zm416 0 3.5 1.5-2.5.5zm234 0 3.5 1.5-2.5.5zm789 0 2.5 1.5-1.5.5zm-1106 1 4.5.5-4.5.5zm19 0 13.5.5-13.5.5zm129 0 3.5.5-3.5.5zm42 0 4.5.5-4.5.5zm13 0 3.5.5-3.5.5zm339 0 4.5.5-4.5.5zm110 0 2.5.5-2.5.5zm70 0 4.5.5-4.5.5zm15 0 3.5.5-3.5.5zm242 0 5.5.5-5.5.5zm71 0 5.5.5-5.5.5z"/></svg>